<svg width="128" height="128" viewBox="0 0 128 128" fill="none" xmlns="http://www.w3.org/2000/svg">
  <!-- 背景圆形 -->
  <circle cx="64" cy="64" r="56" fill="#E67E22" fill-opacity="0.1"/>

  <!-- 挖掘机主体 -->
  <rect x="24" y="56" width="56" height="32" rx="4" fill="#E67E22"/>

  <!-- 驾驶室 -->
  <rect x="68" y="48" width="28" height="24" rx="3" fill="#E67E22"/>
  <rect x="72" y="52" width="12" height="12" fill="#E67E22" fill-opacity="0.5"/>

  <!-- 履带 -->
  <rect x="20" y="84" width="64" height="12" rx="6" fill="#E67E22" fill-opacity="0.7"/>
  <circle cx="32" cy="90" r="4" fill="#E67E22"/>
  <circle cx="48" cy="90" r="4" fill="#E67E22"/>
  <circle cx="64" cy="90" r="4" fill="#E67E22"/>

  <!-- 机械臂 -->
  <rect x="88" y="52" width="8" height="24" rx="2" fill="#E67E22"/>
  <rect x="92" y="40" width="6" height="16" rx="2" fill="#E67E22" transform="rotate(-30 92 40)"/>

  <!-- 铲斗 -->
  <path d="M98 32L112 36L108 48L94 44L98 32Z" fill="#E67E22"/>

  <!-- 警示标志 -->
  <rect x="28" y="60" width="16" height="8" rx="1" fill="#FFD700"/>
  <rect x="28" y="72" width="12" height="8" rx="1" fill="#FFD700"/>
</svg>
