<svg width="128" height="128" viewBox="0 0 128 128" fill="none" xmlns="http://www.w3.org/2000/svg">
  <!-- 背景圆形 -->
  <circle cx="64" cy="64" r="56" fill="#9B59B6" fill-opacity="0.1"/>

  <!-- 两个人物图标 -->
  <!-- 左边人物 -->
  <circle cx="42" cy="42" r="14" fill="#9B59B6"/>
  <path d="M18 84C18 72.9543 26.9543 64 38 64H46C57.0457 64 66 72.9543 66 84V88H18V84Z" fill="#9B59B6"/>

  <!-- 右边人物 -->
  <circle cx="86" cy="42" r="14" fill="#9B59B6" fill-opacity="0.6"/>
  <path d="M62 84C62 72.9543 70.9543 64 82 64H90C101.046 64 110 72.9543 110 84V88H62V84Z" fill="#9B59B6" fill-opacity="0.6"/>

  <!-- 箭头 -->
  <path d="M54 64L64 54L74 64" stroke="#9B59B6" stroke-width="4" stroke-linecap="round" stroke-linejoin="round"/>
  <path d="M64 54V76" stroke="#9B59B6" stroke-width="4" stroke-linecap="round"/>

  <!-- 勾选标记 -->
  <circle cx="64" cy="108" r="12" fill="#9B59B6"/>
  <path d="M58 108L62 112L70 104" stroke="white" stroke-width="3" stroke-linecap="round" stroke-linejoin="round"/>
</svg>
